<?xml version="1.0" encoding="UTF-8" standalone="no"?>
<!-- Generator: Adobe Illustrator 18.0.0, SVG Export Plug-In . SVG Version: 6.00 Build 0)  -->

<svg
   version="1.1"
   id="Layer_1"
   x="0px"
   y="0px"
   viewBox="0 0 600 600"
   enable-background="new 0 0 600 600"
   xml:space="preserve"
   sodipodi:docname="Download-icon.svg"
   inkscape:version="1.1 (c4e8f9e, 2021-05-24)"
   xmlns:inkscape="http://www.inkscape.org/namespaces/inkscape"
   xmlns:sodipodi="http://sodipodi.sourceforge.net/DTD/sodipodi-0.dtd"
   xmlns="http://www.w3.org/2000/svg"
   xmlns:svg="http://www.w3.org/2000/svg"><defs
   id="defs15" /><sodipodi:namedview
   id="namedview13"
   pagecolor="#ffffff"
   bordercolor="#111111"
   borderopacity="1"
   inkscape:pageshadow="0"
   inkscape:pageopacity="0"
   inkscape:pagecheckerboard="1"
   showgrid="false"
   inkscape:zoom="0.81"
   inkscape:cx="300"
   inkscape:cy="330.8642"
   inkscape:window-width="1366"
   inkscape:window-height="708"
   inkscape:window-x="0"
   inkscape:window-y="0"
   inkscape:window-maximized="1"
   inkscape:current-layer="g10" />
<rect
   display="none"
   fill="#020202"
   stroke="#000000"
   stroke-width="1.1344"
   stroke-miterlimit="10"
   width="600"
   height="600"
   id="rect2" />
<polygon
   display="none"
   fill="#FFFFFF"
   points="0,0 0,600 600,300 "
   id="polygon4" />
<g
   id="g10"
   style="fill:#55d400">
	<g
   id="g8"
   style="fill:#55d400">
		<path
   fill="#FFFFFF"
   d="M449.2,197.8h-99.8V44.5c0-14-11.2-25.5-25-25.5h-49.9c-13.7,0-25,11.5-25,25.5v153.3h-99.8l149.7,204.4    L449.2,197.8z M561.6,274.5c-20.7,0-37.4,17.2-37.4,38.3v191.6H74.9V312.8c0-21.2-16.8-38.3-37.4-38.3C16.8,274.5,0,291.6,0,312.8    v229.9C0,563.8,16.8,581,37.4,581h524.1c20.7,0,37.4-17.2,37.4-38.3V312.8C599,291.6,582.2,274.5,561.6,274.5z"
   id="path6"
   style="fill:#55d400" />
	</g>
</g>
</svg>
